<?xml version="1.0" encoding="utf-8"?>
<!-- Generator: Adobe Illustrator 27.0.1, SVG Export Plug-In . SVG Version: 6.00 Build 0)  -->
<svg version="1.1" id="Layer_1" xmlns:v="https://vecta.io/nano"
	 xmlns="http://www.w3.org/2000/svg" xmlns:xlink="http://www.w3.org/1999/xlink" x="0px" y="0px" viewBox="0 0 1777.6 1051.5"
	 style="enable-background:new 0 0 1777.6 1051.5;" xml:space="preserve">
<style type="text/css">
	.st0{fill:#E9973D;stroke:#1D1D1B;stroke-width:2.697;stroke-linejoin:round;stroke-miterlimit:10;}
	.st1{fill:#D17418;stroke:#1D1D1B;stroke-width:2.697;stroke-linejoin:round;stroke-miterlimit:10;}
	.st2{fill:#83CEDF;stroke:#1D1D1B;stroke-width:2.697;stroke-linejoin:round;stroke-miterlimit:10;}
	.st3{fill:#9DD8D3;stroke:#1D1D1B;stroke-width:2.697;stroke-linejoin:round;stroke-miterlimit:10;}
	.st4{fill:#4D92A4;stroke:#1D1D1B;stroke-width:2.697;stroke-linejoin:round;stroke-miterlimit:10;}
	.st5{fill:#4D92A4;stroke:#1D1D1B;stroke-width:2.697;stroke-linecap:round;stroke-linejoin:round;stroke-miterlimit:10;}
	.st6{fill:#F9B169;stroke:#1D1D1B;stroke-width:2.697;stroke-linejoin:round;stroke-miterlimit:10;}
	.st7{stroke:#000000;stroke-width:1.6923;stroke-miterlimit:10;}
	.st8{fill:#627DE8;stroke:#000000;stroke-width:1.6923;stroke-miterlimit:10;}
	.st9{fill:#29407C;stroke:#000000;stroke-width:1.6923;stroke-miterlimit:10;}
	.st10{fill:#BFCAF5;}
	.st11{fill:#8096EC;}
	.st12{fill:#FFFFFF;}
	.st13{fill:#E64242;stroke:#000000;stroke-width:1.6923;stroke-miterlimit:10;}
	.st14{fill:#7A0E1F;stroke:#000000;stroke-width:1.6923;stroke-miterlimit:10;}
	.st15{fill:#15427C;stroke:#020202;stroke-width:1.6923;stroke-miterlimit:10;}
	.st16{fill:#FFFFFF;stroke:#000000;stroke-width:1.6923;stroke-miterlimit:10;}
	.st17{fill:#3468CF;stroke:#020202;stroke-width:1.6923;stroke-miterlimit:10;}
	.st18{stroke:#000000;stroke-width:2.8234;stroke-miterlimit:10;}
	.st19{fill:#5D4FB3;stroke:#000000;stroke-width:2.8234;stroke-miterlimit:10;}
	.st20{fill:#8078E1;stroke:#000000;stroke-width:2.8234;stroke-miterlimit:10;}
	.st21{fill:#322C82;stroke:#000000;stroke-width:2.8234;stroke-miterlimit:10;}
	.st22{stroke:#000000;stroke-width:2.8799;stroke-miterlimit:10;}
	.st23{fill:#E59547;stroke:#000000;stroke-width:2.8799;stroke-miterlimit:10;}
	.st24{fill:#C15206;stroke:#000000;stroke-width:2.8799;stroke-miterlimit:10;}
	.st25{stroke:#000000;stroke-width:2.8234;}
	.st26{fill:#3AD676;stroke:#000000;stroke-width:2.8234;}
	.st27{stroke:#000000;stroke-width:2.0596;stroke-miterlimit:10;}
	.st28{fill:#E59547;stroke:#000000;stroke-width:2.0596;stroke-miterlimit:10;}
	.st29{fill:#C15206;stroke:#000000;stroke-width:2.0596;stroke-miterlimit:10;}
	.st30{fill:#FFFFFF;stroke:#000000;stroke-width:2.019;stroke-miterlimit:10;}
	.st31{fill:#7734B2;stroke:#000000;stroke-width:2.019;stroke-miterlimit:10;}
	.st32{fill:#A164E1;stroke:#000000;stroke-width:2.019;stroke-miterlimit:10;}
	.st33{fill:#4E237C;stroke:#000000;stroke-width:2.019;stroke-miterlimit:10;}
	.st34{fill:#F4F4F4;stroke:#000000;stroke-width:2.019;stroke-miterlimit:10;}
	.st35{fill:#3AD676;stroke:#000000;stroke-width:2.019;stroke-miterlimit:10;}
	.st36{fill:#CCCCCC;stroke:#000000;stroke-width:2.019;stroke-miterlimit:10;}
</style>
<g>
	<path class="st0" d="M791.2,503.5l-66-38.1v-75.7l66,38.1V503.5z"/>
	<path class="st1" d="M726.5,464.3l-65.7,38v-75.4l65.7-38V464.3z"/>
	<path class="st2" d="M726.7,540.7l-66-38.1v-75.7l66,38.1V540.7z"/>
	<path class="st3" d="M792.3,427.2L726.7,465l-66.1-38.2l65.7-37.9L792.3,427.2z"/>
	<path class="st4" d="M792.4,502.4l-65.7,37.9V465l65.7-37.9V502.4z"/>
	<path class="st0" d="M1093.8,503.5l-66-38.1v-75.7l66,38.1V503.5z"/>
	<path class="st1" d="M1029.2,464.3l-65.7,38v-75.4l65.7-38V464.3z"/>
	<path class="st2" d="M1029.4,540.7l-66-38.1v-75.7l66,38.1V540.7z"/>
	<path class="st3" d="M1095,427.2l-65.6,37.8l-66.1-38.2l65.7-37.9L1095,427.2z"/>
	<path class="st4" d="M1095.1,502.4l-65.7,37.9V465l65.7-37.9V502.4z"/>
	<path class="st1" d="M878.7,200.8L813,238.7v-75.4l65.7-37.9V200.8z"/>
	<path class="st2" d="M878.8,277.2l-66-38.1v-75.7l66,38.1V277.2z"/>
	<path class="st3" d="M944.5,163.6l-65.7,37.8l-66.1-38.2l65.7-37.8L944.5,163.6z"/>
	<g>
		<path class="st4" d="M944.6,238.9l-65.7,37.9v-75.4l65.7-37.9V238.9z"/>
		<path class="st5" d="M910.3,219.7l93.2,53.8"/>
	</g>
	<path class="st0" d="M791.6,325.9l-66-38.1v-75.7l66,38.1V325.9z"/>
	<path class="st1" d="M727,286.6l-65.7,38v-75.4l65.7-38V286.6z"/>
	<path class="st2" d="M727.2,363l-66-38.2v-75.6l66,38.1V363z"/>
	<path class="st3" d="M792.7,249.4l-65.6,37.9L661,249.2l65.7-37.9L792.7,249.4z"/>
	<path class="st4" d="M792.9,324.8l-65.7,37.9v-75.4l65.7-37.9V324.8z"/>
	<path class="st0" d="M963.9,325.9l66-38.1v-75.7l-66,38.1V325.9z"/>
	<path class="st1" d="M1028.5,286.6l65.7,38v-75.4l-65.7-38V286.6z"/>
	<path class="st4" d="M1028.4,363l66-38.2v-75.6l-66,38.1V363z"/>
	<path class="st3" d="M962.8,249.4l65.7,37.9l66.1-38.2l-65.6-37.9L962.8,249.4z"/>
	<path class="st2" d="M962.7,324.8l65.7,37.9v-75.4l-65.7-37.9V324.8z"/>
	<path class="st5" d="M844.4,219.7l-85.6,49.4 M762.8,486.1L856,540 M1028.6,334.3v89.1 M726.9,334.3v89.1 M994.5,486.1l-85.6,49.4"
		/>
	<path class="st0" d="M943.3,417.7l-66-38.1V304l66,38.1V417.7z"/>
	<path class="st1" d="M878.7,378.5L813,416.4V341l65.7-37.9V378.5z"/>
	<path class="st0" d="M878.8,454.8l-66-38.1V341l66,38.2V454.8z"/>
	<path class="st6" d="M944.5,341.3l-65.7,37.9L812.7,341l65.7-37.8L944.5,341.3z"/>
	<path class="st1" d="M944.6,416.6l-65.7,38v-75.4l65.7-38V416.6z"/>
	<path class="st0" d="M943.3,590.5l-66-38.1v-75.7l66,38.2V590.5z"/>
	<path class="st1" d="M878.7,551.3L813,589.2v-75.4l65.7-37.9V551.3z"/>
	<path class="st2" d="M878.8,627.6l-66-38.1v-75.7l66,38.2V627.6z"/>
	<path class="st3" d="M944.5,514.1L878.8,552l-66.1-38.2l65.7-37.8L944.5,514.1z"/>
	<path class="st4" d="M944.6,589.4l-65.7,38V552l65.7-38V589.4z"/>
</g>
<g>
	<path class="st7" d="M451,528.7c-0.2,3.3-0.9,6.5-1.9,9.7c-1.7,4.8-4.4,9.6-8.1,14.1c-5,6-11.8,11.7-20.4,16.7
		c-41,23.6-107.7,23.5-149-0.3c-8.5-4.9-15.3-10.5-20.3-16.4c-4.1-4.8-7-9.9-8.8-15c-1.3-3.8-2-7.6-2-11.4
		c-0.2-15.7,9.9-31.2,30.5-43.2c40.9-23.7,107.6-23.5,148.9,0.3C441.6,495.7,452.1,512.3,451,528.7L451,528.7z"/>
	<path class="st8" d="M451.8,500c-0.2,3.3-0.9,6.5-1.9,9.7c-1.7,4.8-4.4,9.6-8.1,14.1c-5,6-11.8,11.7-20.4,16.7
		c-40.9,23.7-107.6,23.5-148.9-0.3c-8.5-4.9-15.3-10.5-20.3-16.4c-4.1-4.8-7-9.9-8.8-15c-1.3-3.8-2-7.6-2-11.4
		c-0.2-15.7,9.9-31.2,30.5-43.2c40.9-23.7,107.6-23.5,148.9,0.3C442.5,467.1,452.9,483.7,451.8,500L451.8,500z"/>
	<path class="st9" d="M451.8,523.7L451.8,523.7L451.8,523.7c-1,14.8-11.1,29.3-30.4,40.5c-40.9,23.7-107.6,23.5-148.9-0.3
		c-19.3-11.1-29.6-25.5-31-40.1c-0.1-1-0.2-2.1-0.2-3.2v-23.3l0,0c0.1,3.8,0.7,7.6,2,11.4c1.7,5.2,4.7,10.2,8.8,15
		c5,5.9,11.8,11.4,20.3,16.4c41.3,23.8,107.9,24,148.9,0.3c8.7-5,15.4-10.7,20.4-16.7c3.7-4.5,6.4-9.3,8.1-14.1
		c1.1-3.2,1.7-6.4,1.9-9.7v19.3C452,520.8,452,522.3,451.8,523.7L451.8,523.7z"/>
</g>
<path class="st10" d="M403.2,464.5l-76.8,44.4l55.6,8.5L403.2,464.5z"/>
<path class="st11" d="M361.8,488.4l-35.5,20.4l55.6,8.5L361.8,488.4z"/>
<path class="st10" d="M375.5,521l-55.6-8.4l-27.8,16.1L375.5,521z"/>
<path class="st12" d="M305.3,480.5l14.6,32.1l-27.8,16.1L305.3,480.5z M403.2,464.5l-76.8,44.4l-14.7-32L403.2,464.5z"/>
<path class="st10" d="M361.8,488.4l-35.5,20.4l-14.7-32L361.8,488.4z"/>
<g>
	<g>
		<path id="B" class="st7" d="M511.8,781.4c-0.2,3.3-0.9,6.5-2,9.7c-1.7,4.8-4.4,9.7-8.2,14.2c-5,6-11.8,11.8-20.5,16.8
			c-41.1,23.8-108,23.6-149.5-0.3c-8.6-4.9-15.3-10.5-20.3-16.5c-4.1-4.8-7.1-9.9-8.8-15.1c-1.3-3.8-2-7.6-2-11.5
			c-0.2-15.7,10-31.4,30.7-43.3c41.1-23.8,108-23.6,149.5,0.3C502.5,748.3,512.9,765,511.8,781.4L511.8,781.4z"/>
	</g>
	<g>
		<path id="B_00000090254934255565117950000012397680365454546305_" class="st13" d="M511.8,752.6c-0.2,3.3-0.9,6.5-2,9.7
			c-1.7,4.8-4.4,9.7-8.2,14.2c-5,6-11.8,11.8-20.5,16.8c-41.1,23.8-108,23.6-149.5-0.3c-8.6-4.9-15.3-10.5-20.3-16.5
			c-4.1-4.8-7.1-9.9-8.8-15.1c-1.3-3.8-2-7.6-2-11.5c-0.2-15.7,10-31.4,30.7-43.3c41.1-23.8,108-23.6,149.5,0.3
			C502.5,719.5,512.9,736.2,511.8,752.6L511.8,752.6z"/>
	</g>
	<path class="st14" d="M511.8,776.4L511.8,776.4L511.8,776.4c-1,14.9-11.1,29.4-30.6,40.6c-41.1,23.8-108,23.6-149.5-0.3
		c-19.4-11.2-29.8-25.7-31.1-40.2c-0.1-1-0.2-2.1-0.2-3.2V750l0,0c0.1,3.9,0.7,7.8,2,11.5c1.7,5.2,4.7,10.3,8.8,15.1
		c5,6,11.8,11.5,20.3,16.5c41.5,23.9,108.5,24,149.6,0.3c8.7-5,15.5-10.7,20.5-16.8c3.7-4.5,6.5-9.3,8.2-14.2c1.1-3.2,1.7-6.4,2-9.7
		v19.4C511.9,773.5,511.9,774.9,511.8,776.4z"/>
</g>
<path class="st12" d="M432.4,760.8c1.1-2.4-2.7-4.5-6.8-3.9l-31.3,4.8c-4.1,0.6-5.5,3.6-2.5,5.3l23.1,13.3c3,1.7,8.2,1,9.2-1.4
	L432.4,760.8z M442,739.9l5.9-12.9c1-2.2-2.5-4.3-6.4-3.7l-90.4,13.8c-3.9,0.6-5.2,3.4-2.3,5.1l16.5,9.5c3.7,2.1,9.1,3,14.2,2.2
	l52.1-7.9C436.7,745.2,440.7,742.9,442,739.9L442,739.9z"/>
<g>
	<g>
		<path id="C" class="st7" d="M653.2,633.6c-0.2,3.3-0.9,6.6-2,9.8c-1.7,4.9-4.4,9.8-8.1,14.3c-5,6.1-11.8,11.8-20.5,16.9
			c-41.1,23.9-107.9,23.8-149.3-0.3c-8.5-5-15.3-10.6-20.3-16.5c-4.1-4.8-7.1-10-8.8-15.2c-1.3-3.8-2-7.7-2-11.6
			c-0.2-15.8,10-31.6,30.6-43.6c41.1-23.9,107.9-23.8,149.3,0.3C643.9,600.3,654.3,617,653.2,633.6L653.2,633.6z"/>
	</g>
	<path class="st15" d="M653.6,626.7L653.6,626.7L653.6,626.7c-1,14.9-11.1,29.6-30.5,40.9c-41.1,23.9-107.9,23.8-149.3-0.3
		c-19.4-11.3-29.7-25.8-31-40.6c-0.1-1.1-0.2-2.1-0.2-3.2V600l0,0c0.1,3.9,0.7,7.8,2,11.6c1.7,5.2,4.7,10.3,8.8,15.2
		c5,6,11.8,11.6,20.3,16.5c41.3,24.1,108.2,24.2,149.3,0.3c8.7-5.1,15.5-10.7,20.5-16.9c3.7-4.6,6.4-9.4,8.1-14.3
		c1.1-3.2,1.7-6.4,2-9.8v19.6C653.7,623.8,653.7,625.3,653.6,626.7L653.6,626.7z"/>
	<path class="st16" d="M653.6,626.8L653.6,626.8L653.6,626.8z"/>
	<g>
		<path id="C_00000142876932804837784840000004267878272824560306_" class="st17" d="M653.6,602.7c-0.2,3.3-0.9,6.6-2,9.8
			c-1.7,4.9-4.4,9.8-8.1,14.3c-5,6.1-11.8,11.8-20.5,16.9c-41.1,23.9-107.9,23.8-149.3-0.3c-8.5-5-15.3-10.6-20.3-16.5
			c-4.1-4.8-7.1-10-8.8-15.2c-1.3-3.8-2-7.7-2-11.6c-0.2-15.8,10-31.6,30.6-43.6c41.1-23.9,107.9-23.8,149.3,0.3
			C644.3,569.4,654.7,586.2,653.6,602.7L653.6,602.7z"/>
	</g>
</g>
<g>
	
		<ellipse transform="matrix(6.409736e-03 -1 1 6.409736e-03 -35.7509 1137.4935)" class="st12" cx="554.5" cy="586.7" rx="5.4" ry="9.2"/>
	
		<ellipse transform="matrix(6.419736e-03 -1 1 6.419736e-03 -29.2633 1162.1189)" class="st12" cx="570.2" cy="595.8" rx="5.4" ry="9.2"/>
	
		<ellipse transform="matrix(6.406737e-03 -1 1 6.406737e-03 -12.2477 1155.1714)" class="st12" cx="575.2" cy="583.7" rx="3.4" ry="5.9"/>
	<path class="st12" d="M588.3,576.2c1.5,0.9,4,0.9,5.5,0s1.5-2.3,0-3.2s-4-0.9-5.5,0S586.8,575.3,588.3,576.2L588.3,576.2z
		 M530.7,567.1c1.5,0.9,4,0.9,5.5,0s1.5-2.3,0-3.2s-4-0.9-5.5,0S529.2,566.3,530.7,567.1z"/>
	<g>
		<path id="D" class="st12" d="M609.2,606.6c-1.5-0.9-4-0.9-5.5,0s-1.5,2.3,0,3.2s4,0.9,5.5,0C610.7,608.9,610.7,607.4,609.2,606.6z
			"/>
	</g>
	
		<ellipse transform="matrix(6.414736e-03 -1 1 6.414736e-03 -101.6907 1077.5422)" class="st12" cx="491.4" cy="589.9" rx="2.2" ry="3.9"/>
	<g>
		<path id="D_00000096017083542019480650000014181098691045565849_" class="st12" d="M567.2,631c-1.5-0.9-4-0.9-5.5,0
			s-1.5,2.3,0,3.2s4,0.9,5.5,0S568.7,631.8,567.2,631z"/>
	</g>
	<g>
		<path id="D_00000142137156536376653160000005994446135462853557_" class="st12" d="M509.9,621.9c-1.5-0.9-4-0.9-5.5,0
			s-1.5,2.3,0,3.2s4,0.9,5.5,0S511.4,622.8,509.9,621.9z"/>
	</g>
	<path class="st12" d="M558.2,573.8c1.9,1.1,4.9,1.1,6.8,0s1.8-2.9,0-4c-1.9-1.1-4.9-1.1-6.8,0S556.3,572.7,558.2,573.8z
		 M562.9,563.6c1.3,0.7,3.3,0.7,4.5,0c1.3-0.7,1.3-1.9,0-2.6c-1.3-0.7-3.3-0.7-4.5,0C561.7,561.6,561.7,562.8,562.9,563.6z
		 M609.7,590.8c1.3,0.7,3.3,0.7,4.5,0c1.3-0.7,1.3-1.9,0-2.6c-1.3-0.7-3.3-0.7-4.5,0S608.4,590,609.7,590.8z M488.1,607.2
		c-1.3-0.7-3.3-0.7-4.5,0c-1.3,0.7-1.3,1.9,0,2.6c1.3,0.7,3.3,0.7,4.5,0C489.3,609.2,489.3,608,488.1,607.2z"/>
	<g>
		<path id="E" class="st12" d="M534.8,634.5c-1.3-0.7-3.3-0.7-4.5,0c-1.3,0.7-1.3,1.9,0,2.6c1.3,0.7,3.3,0.7,4.5,0
			C536.1,636.4,536.1,635.2,534.8,634.5z"/>
	</g>
	<g>
		<path id="E_00000171703390933463238130000007571118670735926408_" class="st12" d="M597.4,624.7c-1.3-0.7-3.3-0.7-4.5,0
			c-1.3,0.7-1.3,1.9,0,2.6c1.3,0.7,3.3,0.7,4.5,0C598.7,626.6,598.7,625.4,597.4,624.7z"/>
	</g>
	<g>
		<path id="E_00000029009152637635077530000017324691609791088041_" class="st12" d="M504.8,570.7c-1.3-0.7-3.3-0.7-4.5,0
			c-1.3,0.7-1.3,1.9,0,2.6c1.3,0.7,3.3,0.7,4.5,0C506.1,572.6,506.1,571.4,504.8,570.7z"/>
	</g>
	<path class="st12" d="M592.2,593.7c1.9,1.1,4.9,1.1,6.8,0s1.8-2.9,0-4c-1.9-1.1-4.9-1.1-6.8,0S590.3,592.6,592.2,593.7z
		 M505.7,604.4c-1.9-1.1-4.9-1.1-6.8,0s-1.8,2.9,0,4c1.9,1.1,4.9,1.1,6.8,0C507.6,607.3,507.6,605.5,505.7,604.4z M518.1,577.1
		c-1.9-1.1-4.9-1.1-6.8,0s-1.8,2.9,0,4c1.9,1.1,4.9,1.1,6.8,0C520,580,520,578.3,518.1,577.1z"/>
	
		<ellipse transform="matrix(6.423734e-03 -1 1 6.423734e-03 -39.63 1198.1991)" class="st12" cx="583.1" cy="619" rx="2.8" ry="4.8"/>
	<path class="st12" d="M539.7,624.3c-1.9-1.1-4.9-1.1-6.8,0c-1.9,1.1-1.8,2.9,0,4c1.9,1.1,4.9,1.1,6.8,0S541.6,625.3,539.7,624.3z"
		/>
	
		<ellipse transform="matrix(6.416736e-03 -1 1 6.416736e-03 -42.4941 1113.4015)" class="st12" cx="539" cy="578.1" rx="3.4" ry="5.9"/>
	
		<ellipse transform="matrix(6.417800e-03 -1 1 6.417800e-03 -83.9269 1102.2877)" class="st12" cx="512.7" cy="593.4" rx="3.4" ry="5.9"/>
	
		<ellipse transform="matrix(6.416736e-03 -1 1 6.416736e-03 -23.6443 1185.7323)" class="st12" cx="584.9" cy="604.8" rx="3.4" ry="5.9"/>
	
		<ellipse transform="matrix(6.409736e-03 -1 1 6.409736e-03 -65.0735 1174.6238)" class="st12" cx="558.6" cy="620.1" rx="3.4" ry="5.9"/>
	
		<ellipse transform="matrix(6.406737e-03 -1 1 6.406737e-03 -95.0164 1133.2471)" class="st12" cx="522.8" cy="614.4" rx="3.4" ry="5.9"/>
	
		<ellipse transform="matrix(6.412736e-03 -1 1 6.412736e-03 -77.6907 1126.2104)" class="st12" cx="527.9" cy="602.2" rx="5.4" ry="9.2"/>
	
		<ellipse transform="matrix(6.415736e-03 -1 1 6.415736e-03 -71.2976 1150.7806)" class="st12" cx="543.4" cy="611.3" rx="5.4" ry="9.2"/>
	
		<ellipse transform="matrix(6.415736e-03 -1 1 6.415736e-03 -47.0592 1168.697)" class="st12" cx="564.6" cy="608" rx="5.4" ry="9.2"/>
	
		<ellipse transform="matrix(6.415736e-03 -1 1 6.415736e-03 -60.1311 1119.3718)" class="st12" cx="533.2" cy="589.9" rx="5.4" ry="9.2"/>
</g>
<g>
	<g>
		<path class="st18" d="M1133.6,801c-0.9,5.2-2.2,10.4-4.1,15.5c-2.1,5.6-4.8,11.2-8,16.7c-11.5,19.2-30.4,37.1-56.9,52.4
			c-94,54.3-247.1,54-341.8-0.7c-26.2-15.1-45.2-32.8-57-51.7c-3.8-6.1-6.9-12.4-9.2-18.7c-1.8-4.9-3.2-9.9-4-14.9
			c-7-40.1,16-81.5,68.9-112c94-54.3,247.1-54,341.8,0.7C1116.8,719.1,1140.3,760.8,1133.6,801L1133.6,801z"/>
		<path class="st19" d="M1056.8,878.2c-94,54.3-247.1,54-341.8-0.7c-53.5-30.9-77-72.6-70.3-112.7v-30.5h0.1c0.9,5,2.2,10,4,14.9
			c2.3,6.3,5.4,12.6,9.2,18.7c11.8,18.8,30.8,36.6,57,51.7c94.8,54.7,247.8,55,341.8,0.7c26.5-15.3,45.5-33.2,56.9-52.4
			c3.3-5.5,6-11,8-16.7c1.9-5.1,3.3-10.3,4.1-15.5v31.2C1132.5,806.6,1109.5,847.7,1056.8,878.2L1056.8,878.2z"/>
		<path class="st20" d="M1125.9,735.6c-0.9,5.2-2.2,10.4-4.1,15.5c-2.1,5.6-4.8,11.2-8,16.7c-11.5,19.2-30.4,37.1-56.9,52.4
			c-94,54.3-247.1,54-341.8-0.7c-26.2-15.1-45.2-32.8-57-51.7c-3.8-6.1-6.9-12.4-9.2-18.7c-1.8-4.9-3.2-9.9-4-14.9
			c-7-40.1,16-81.5,68.9-112c94-54.3,247.1-54,341.8,0.7C1109.1,653.9,1132.6,695.4,1125.9,735.6L1125.9,735.6z"/>
		<path class="st21" d="M749,675.6c74.7-43.2,196.3-42.8,271.5,0.6c30.4,17.6,48.6,39.6,54.6,62.4c0.5-1.9,1-3.9,1.3-5.9
			c5.3-32-13.4-65-55.9-89.6c-75.3-43.5-196.8-43.7-271.5-0.6c-42,24.2-60.3,57.2-54.8,89c0.3,1.8,0.7,3.6,1.2,5.4
			C701.3,714.5,719.1,692.9,749,675.6L749,675.6z"/>
		<path class="st19" d="M704.7,758.3c9.4,14.9,24.5,29,45.3,41.1c75.3,43.5,196.8,43.7,271.5,0.6c21-12.2,36.1-26.4,45.2-41.7
			c2.6-4.4,4.8-8.8,6.4-13.3c0.8-2.1,1.4-4.3,2-6.4c-5.9-22.8-24.1-44.8-54.6-62.4c-75.3-43.5-196.8-43.7-271.5-0.6
			c-29.9,17.2-47.8,38.9-53.6,61.4c0.6,2.1,1.2,4.3,2,6.4C699.3,748.4,701.7,753.4,704.7,758.3L704.7,758.3z"/>
	</g>
	<g>
		<path class="st22" d="M1055.6,738c-0.3,4.4-1.3,8.8-2.9,13.1c-2.5,6.6-6.5,13-12.2,19.2c-7.5,8.2-17.6,15.9-30.5,22.7
			c-61.2,32.1-160.9,32-222.6-0.4c-12.7-6.7-22.8-14.2-30.4-22.3c-6.1-6.5-10.5-13.4-13.1-20.4c-1.9-5.2-2.9-10.3-3-15.5
			c-0.3-21.2,14.9-42.4,45.7-58.6c61.2-32.1,160.9-32,222.6,0.4C1041.6,693.4,1057.1,715.9,1055.6,738z"/>
		<path class="st23" d="M1024.1,576.1c1.9,4.8,3.1,9.9,3.7,15.2c0.9,8.1,0.2,16.7-2.1,25.8c-3.1,12-9.1,24.6-18.1,37.6
			C964.8,716,869.1,760.5,793.9,754c-15.5-1.4-28.9-4.8-40.1-9.9c-9.1-4.1-16.7-9.5-22.7-15.7c-4.4-4.5-7.9-9.6-10.6-15
			c-10.7-22.3-6.7-51.5,14.9-82.4c42.8-61.4,138.5-105.9,213.7-99.4C988.7,535.2,1014.6,552,1024.1,576.1L1024.1,576.1z"/>
		<path class="st24" d="M1040,610.1L1040,610.1l0.1,0.2c8.5,21.7,3.7,49.4-16.6,78.4C980.7,750,885,794.5,809.8,788
			c-35.2-3-59.6-16.7-71.3-36.7c-0.9-1.4-1.6-2.9-2.3-4.5l-15.6-33.4l0,0c2.6,5.5,6.2,10.5,10.6,15c6,6.2,13.6,11.5,22.7,15.7
			c11.1,5.1,24.6,8.5,40.1,9.9c75.1,6.5,170.8-38,213.7-99.4c9.1-13,15-25.6,18.1-37.6c2.3-9,3-17.6,2.1-25.8
			c-0.6-5.3-1.8-10.4-3.7-15.2l13,27.7C1038.2,605.9,1039.2,608,1040,610.1L1040,610.1z"/>
	</g>
</g>
<path class="st12" d="M957.9,632.3c16.1-18,6-29.3-12.8-37.8l24.9-24.1l-15.8-5.3L930,588.5l-12.8-4.1l24.4-23.6l-15.9-5.4
	l-24.9,24.1l-10.2-3.3l0.1-0.1l-21.9-7.4l-16.1,15.7l11.5,3.9c6.4,2.1,4.9,6.4,2.5,9.5l-28.4,27.5c0.6,0.2,1.1,0.4,1.6,0.6l-1.7-0.6
	l-39.7,38.5c-2.2,1.7-6.4,4.4-11,2.9c0,0.2-11.5-3.9-11.5-3.9l-21.2,16.5l20.6,7l11.2,3.9l-25.1,24.4l15.8,5.3l24.9-24.1l12.6,4.4
	l-24.8,24l15.8,5.3l25.1-24.3c28.1,7.6,53.1,7.6,79.3-14.7c21.1-18,20.2-29.6,8.6-38C932.5,651.2,946.2,645.5,957.9,632.3
	L957.9,632.3L957.9,632.3z M884.5,673.4c-17.1,15.7-49.5,3.7-60.5,0.3l30.3-28C865.2,649.2,902.3,657,884.5,673.4z M921.6,628.9
	c-17.1,16.6-43.2,5.2-52.1,2.1l30.2-29.3C908.7,604.8,939.5,611.6,921.6,628.9L921.6,628.9z"/>
<g>
	<circle class="st25" cx="919.1" cy="889.2" r="8.3"/>
	<g>
		<circle class="st26" cx="890.6" cy="889.2" r="8.3"/>
		<circle class="st26" cx="862.1" cy="889.2" r="8.3"/>
	</g>
</g>
<path d="M1553.4,628.2l-81.2-88.6c-0.8-0.9-2.1-1.7-3.7-2.1l-154.3-46.7c-3.4-1-7.6-0.6-10.3,0.9l-103.7,59.5
	c-18.2,10.4-32.6,22.7-42.7,36.2l-3.1,4.1c-9.9,13.1-15.3,27.3-16.2,41.5h-0.2v4.5V666v7.4l0.6,1c0.2,1.5,0.4,3,0.7,4.5
	c1.4,6.9,3.7,13.8,7.2,20.5l20,38.8c0.4,0.8,1.2,1.6,2.2,2.1c1,0.6,2.3,1,3.7,1.3l67.6,11.5c11.8,2,23.8,3.4,35.8,4.1
	c29.5,1.8,59.3,0,87.3-5.4h0.1c5-1,10-2.1,14.9-3.3l7.1-1.7c23.6-5.8,44.8-14.1,63-24.5l103.7-59.5c1.4-0.8,2.2-1.8,2.5-2.9h0.1
	v-0.6v-28.6v-0.1C1554.4,629.7,1554,628.9,1553.4,628.2L1553.4,628.2z"/>
<g>
	<g>
		<path class="st27" d="M1226.8,555c-0.1,1.4-0.4,2.9-0.9,4.4c-0.7,2.1-2,4.3-3.7,6.4c-2.2,2.7-5.3,5.2-9.2,7.5
			c-18.4,10.6-48.5,10.6-67.1-0.2c-3.8-2.2-6.9-4.7-9.1-7.3c-1.8-2.1-3.2-4.5-4-6.8c-0.6-1.7-0.9-3.4-0.9-5.1
			c-0.1-7,4.5-14,13.8-19.3c18.4-10.6,48.5-10.6,67.1,0.2C1222.5,540.3,1227.2,547.7,1226.8,555L1226.8,555z"/>
		<g>
			<path id="F" class="st28" d="M1226.3,539.7c-0.1,1.5-0.4,3.1-1,4.6c-0.8,2.3-2.1,4.5-3.9,6.7c-2.4,2.9-5.6,5.6-9.8,7.9
				c-19.6,11.2-51.3,11.1-71-0.2c-4.1-2.3-7.3-4.9-9.7-7.8c-2-2.3-3.3-4.7-4.2-7.2c-0.6-1.8-1-3.6-1-5.4
				c-0.1-7.4,4.8-14.9,14.5-20.4c19.6-11.2,51.3-11.1,71,0.2C1221.8,524,1226.8,531.9,1226.3,539.7L1226.3,539.7z"/>
		</g>
		<path class="st29" d="M1226.3,550.9L1226.3,550.9C1226.3,551,1226.2,551,1226.3,550.9c-0.5,7-5.3,13.9-14.5,19.2
			c-19.6,11.2-51.3,11.1-71-0.2c-9.2-5.3-14.1-12.1-14.8-19c-0.1-0.5-0.1-1-0.1-1.5v-11l0,0c0,1.8,0.3,3.7,1,5.4
			c0.9,2.5,2.2,4.8,4.2,7.2c2.4,2.8,5.6,5.4,9.7,7.8c19.7,11.3,51.4,11.4,71,0.2c4.1-2.4,7.4-5,9.8-7.9c1.7-2.1,3.1-4.5,3.9-6.7
			c0.6-1.5,0.9-3,1-4.6v9.1C1226.3,549.6,1226.3,550.3,1226.3,550.9L1226.3,550.9z"/>
		<path class="st27" d="M1430.3,521.8c-0.1,1.4-0.4,2.9-0.9,4.4c-0.7,2.1-2,4.3-3.7,6.4c-2.2,2.7-5.3,5.2-9.2,7.5
			c-18.4,10.6-48.5,10.6-67.1-0.2c-3.8-2.2-6.9-4.7-9.1-7.3c-1.8-2.1-3.2-4.5-4-6.8c-0.6-1.7-0.9-3.4-0.9-5.1
			c-0.1-7,4.5-14,13.8-19.3c18.4-10.6,48.5-10.6,67.1,0.2C1426.1,507.1,1430.8,514.5,1430.3,521.8L1430.3,521.8z"/>
		<g>
			<path id="G" class="st28" d="M1429.8,506.5c-0.1,1.5-0.4,3.1-1,4.6c-0.8,2.3-2.1,4.5-3.9,6.7c-2.4,2.9-5.6,5.6-9.8,7.9
				c-19.6,11.2-51.3,11.1-71-0.2c-4.1-2.3-7.3-4.9-9.7-7.8c-2-2.3-3.3-4.7-4.2-7.2c-0.6-1.8-1-3.6-1-5.4
				c-0.1-7.4,4.8-14.9,14.5-20.4c19.6-11.2,51.3-11.1,71,0.2C1425.3,490.9,1430.2,498.8,1429.8,506.5L1429.8,506.5z"/>
		</g>
		<path class="st29" d="M1429.8,517.8L1429.8,517.8c-0.5,7-5.3,13.9-14.5,19.2c-19.6,11.2-51.3,11.1-71-0.2
			c-9.2-5.3-14.1-12.1-14.8-19c-0.1-0.5-0.1-1-0.1-1.5v-11l0,0c0,1.8,0.3,3.7,1,5.4c0.9,2.5,2.2,4.8,4.2,7.2
			c2.4,2.8,5.6,5.4,9.7,7.8c19.7,11.3,51.4,11.4,71,0.2c4.1-2.4,7.4-5,9.8-7.9c1.7-2.1,3.1-4.5,3.9-6.7c0.6-1.5,0.9-3,1-4.6v9.1
			C1429.8,516.3,1429.8,517.1,1429.8,517.8L1429.8,517.8z"/>
	</g>
	<path class="st30" d="M1133.3,665.2l-0.6-1v-7.5C1132.7,659.6,1132.9,662.4,1133.3,665.2z M1132.9,623.1l-0.2,4.5v-4.5H1132.9z
		 M1554.5,649.6v0.6h-0.1C1554.4,650.1,1554.5,649.9,1554.5,649.6z"/>
	<path class="st31" d="M1554.5,620.5v29.1c0,0.2,0,0.4-0.1,0.6c-0.2,1.1-1.1,2.1-2.5,2.9l-105,60.6c-18.4,10.7-39.9,19-63.8,25
		l-7.2,1.8c-4.9,1.2-10,2.3-15.1,3.3h-0.1c-28.3,5.5-58.6,7.4-88.4,5.6c-12.1-0.8-24.3-2.1-36.2-4.2l-68.4-11.7
		c-1.4-0.2-2.8-0.7-3.8-1.3s-1.8-1.4-2.2-2.2l-20.3-39.5c-3.5-6.8-6-13.9-7.3-20.9c-0.3-1.5-0.6-3-0.7-4.5c-0.3-2.9-0.6-5.6-0.6-8.5
		v-29.1c0,4.3,0.4,8.7,1.3,13c0.1,0.6,0.2,1,0.3,1.6c1.4,6.5,3.7,13,7,19.3l20.3,39.5c0.5,0.9,1.2,1.6,2.2,2.2
		c0.9,0.5,1.9,0.9,3,1.2c0.2,0.1,0.5,0.1,0.8,0.2l16.5,2.8l52,8.9c11.9,2.1,24.1,3.4,36.2,4.2c35.2,2.2,71.1-0.8,103.6-8.9l7.2-1.8
		c23.9-6,45.5-14.3,63.8-25l65.8-38l13.3-7.7l13.1-7.6l12.8-7.4C1553.5,623.2,1554.5,621.9,1554.5,620.5L1554.5,620.5z"/>
	<path class="st32" d="M1553.4,618.2l-82.3-90.2c-0.9-1-2.1-1.7-3.7-2.1l-156.3-47.5c-3.5-1-7.7-0.7-10.4,0.9l-105,60.6
		c-18.4,10.7-33,23.1-43.2,36.9l-3.1,4.1c-9.9,13.4-15.5,27.7-16.5,42.3c-0.1,1.5-0.2,3-0.2,4.5c0,4.3,0.4,8.7,1.3,13
		c0.1,0.6,0.2,1,0.3,1.6c1.4,6.5,3.7,13,7,19.3l20.3,39.5c0.5,0.9,1.2,1.6,2.2,2.2c0.9,0.5,1.9,0.9,3,1.2c0.2,0.1,0.5,0.1,0.8,0.2
		l16.5,2.8l52,8.9c11.9,2.1,24.1,3.4,36.2,4.2c35.2,2.2,71.1-0.8,103.6-8.9l7.2-1.8c23.9-6,45.5-14.3,63.8-25l65.8-38l13.3-7.7
		l13.1-7.6l12.8-7.4c1.7-1,2.6-2.3,2.6-3.6v-0.1C1554.4,619.7,1554.1,618.9,1553.4,618.2L1553.4,618.2z M1532.7,620.6l-2.3,1.4
		l-13.1,7.6l-13.3,7.6l-69.8,40.3c-16.9,9.7-36.5,17.4-58.3,22.8l-7.2,1.8c-29.6,7.3-62.4,10.2-94.6,8.1c-11-0.7-22.2-2-33.1-3.8
		l-63-10.8l-0.8-0.2l-18.9-36.8c-2.8-5.4-4.8-10.9-6.1-16.4c-0.2-0.9-0.4-1.8-0.6-2.7c-1-5.5-1.4-11-1-16.5
		c0.6-7.5,2.5-14.9,5.6-22.2c2.4-5.4,5.5-10.7,9.3-15.8l3.1-4.1c9.4-12.6,22.7-24,39.5-33.7l100.4-57.9l148,45l77.9,85.5
		L1532.7,620.6z"/>
	<path class="st33" d="M1456.7,534.1l-148-45L1208.3,547c-16.9,9.7-30.1,21.1-39.5,33.7l-3.1,4.1c-3.8,5.2-6.9,10.4-9.3,15.8
		c-3.2,7.2-5.1,14.7-5.6,22.2c-0.4,5.5-0.1,11,1,16.5c0.2,0.9,0.4,1.8,0.6,2.7c1.3,5.5,3.3,11,6.1,16.4l18.9,36.8l0.8,0.2l63,10.8
		c10.9,1.8,22,3.2,33.1,3.8c32.2,2.1,64.9-0.8,94.6-8.1l7.2-1.8c21.9-5.4,41.5-13.1,58.3-22.8l69.8-40.3l13.3-7.6l13.1-7.6l2.3-1.4
		l1.9-1.1L1456.7,534.1z M1513,620.8c-0.3,0.8-1,1.5-1.8,2.1c-0.2,0.1-0.3,0.2-0.5,0.3l-12.8,7.4l-73.4,42.4
		c-15.3,8.8-33,15.7-52.9,20.7l-5.9,1.4c-26.9,6.7-56.5,9.2-85.7,7.3c-10-0.6-20.1-1.8-30-3.5l-56.1-9.6c-1.4-0.2-2.8-0.7-3.8-1.3
		s-1.8-1.4-2.2-2.2l-16.6-32.4c-2.3-4.5-4-9-5.2-13.5l0,0c-0.3-1.3-0.6-2.5-0.9-3.8c-0.9-4.4-1.1-8.7-1-13.2c0.1-2.8,0.4-5.5,1-8.3
		c1.8-9.6,6.1-19.2,12.7-28.1l2.5-3.4c2.8-3.7,6-7.4,9.5-10.9c7.2-7.2,16.1-13.8,26.3-19.6l86.1-49.7c2.7-1.6,7-1.9,10.4-0.9
		l128.1,38.9c1.6,0.5,2.9,1.3,3.8,2.1l6.1,6.7l0,0l61.4,67.3C1513.3,618.2,1513.5,619.6,1513,620.8L1513,620.8z"/>
	<path class="st32" d="M1513,620.8c-0.3,0.8-1,1.5-1.8,2.1c-0.2,0.1-0.3,0.2-0.5,0.3l-12.8,7.4l-73.4,42.4
		c-15.3,8.8-33,15.7-52.9,20.7l-5.9,1.4c-26.9,6.7-56.5,9.2-85.7,7.3c-10-0.6-20.1-1.8-30-3.5l-56.1-9.6c-1.4-0.2-2.8-0.7-3.8-1.3
		s-1.8-1.4-2.2-2.2l-16.6-32.4c-2.3-4.5-4-9-5.2-13.5l0,0c-0.3-1.3-0.6-2.5-0.9-3.8c-0.9-4.4-1.1-8.7-1-13.2c0.1-2.8,0.4-5.5,1-8.3
		c1.8-9.6,6.1-19.2,12.7-28.1l2.5-3.4c2.8-3.7,6-7.4,9.5-10.9c7.2-7.2,16.1-13.8,26.3-19.6l86.1-49.7c2.7-1.6,7-1.9,10.4-0.9
		l128.1,38.9c1.6,0.5,2.9,1.3,3.8,2.1l6.1,6.7l0,0l61.4,67.3C1513.3,618.2,1513.5,619.6,1513,620.8L1513,620.8z"/>
	<path class="st30" d="M1162.7,702.4l-1.1,27.7"/>
	<g>
		<g>
			<path id="F_00000091719010178614437050000015983863599345154733_" class="st27" d="M1321.7,828.6c-0.1,1.5-0.4,3.1-1,4.6
				c-0.8,2.3-2.1,4.5-3.9,6.7c-2.4,2.9-5.6,5.6-9.8,7.9c-19.6,11.2-51.3,11.1-71-0.2c-4.1-2.3-7.3-4.9-9.7-7.8
				c-2-2.3-3.3-4.7-4.2-7.2c-0.6-1.8-1-3.6-1-5.4c-0.1-7.4,4.8-14.9,14.5-20.4c19.6-11.2,51.3-11.1,71,0.2
				C1317.3,812.9,1322.2,820.8,1321.7,828.6L1321.7,828.6z"/>
		</g>
		<path class="st28" d="M1321.2,812.3c-0.1,1.7-0.4,3.3-1,4.8c-0.9,2.5-2.2,4.8-4.1,7.1c-2.5,3-6,5.9-10.3,8.3
			c-20.7,11.8-54.3,11.8-75.1-0.2c-4.3-2.5-7.7-5.2-10.3-8.2c-2.1-2.4-3.6-4.9-4.5-7.6c-0.6-1.9-1-3.8-1-5.7
			c-0.1-7.9,5-15.7,15.4-21.6c20.7-11.8,54.3-11.8,75.1,0.2C1316.4,795.7,1321.7,804.1,1321.2,812.3L1321.2,812.3z"/>
		<path class="st29" d="M1321.2,824.2L1321.2,824.2C1321.2,824.3,1321.2,824.3,1321.2,824.2c-0.5,7.5-5.6,14.7-15.4,20.3
			c-20.7,11.8-54.3,11.8-75.1-0.2c-9.8-5.6-14.9-12.8-15.7-20.1c-0.1-0.6-0.1-1-0.1-1.6V811l0,0c0,1.9,0.4,3.8,1,5.7
			c0.9,2.6,2.4,5.2,4.5,7.6c2.5,2.9,6,5.7,10.3,8.2c20.8,11.9,54.4,12,75.1,0.2c4.4-2.5,7.8-5.3,10.3-8.3c1.9-2.3,3.3-4.7,4.1-7.1
			c0.5-1.6,0.9-3.2,1-4.8v9.7L1321.2,824.2L1321.2,824.2z"/>
		<g>
			<path id="G_00000025444095974778537040000008096201624950850995_" class="st27" d="M1356.2,816.3c-0.1,1.5-0.4,3.1-1,4.6
				c-0.8,2.3-2.1,4.5-3.9,6.7c-2.4,2.9-5.6,5.6-9.8,7.9c-19.6,11.2-51.3,11.1-71-0.2c-4.1-2.3-7.3-4.9-9.7-7.8
				c-2-2.3-3.3-4.7-4.2-7.2c-0.6-1.8-1-3.6-1-5.4c-0.1-7.4,4.8-14.9,14.5-20.4c19.6-11.2,51.3-11.1,71,0.2
				C1351.8,800.7,1356.7,808.6,1356.2,816.3L1356.2,816.3z"/>
		</g>
		<path class="st28" d="M1355.7,800.1c-0.1,1.7-0.4,3.3-1,4.8c-0.9,2.5-2.2,4.8-4.1,7.1c-2.5,3-6,5.9-10.3,8.3
			c-20.7,11.8-54.3,11.8-75.1-0.2c-4.3-2.5-7.7-5.2-10.3-8.2c-2.1-2.4-3.6-4.9-4.5-7.6c-0.6-1.9-1-3.8-1-5.7
			c-0.1-7.9,5-15.7,15.4-21.6c20.7-11.8,54.3-11.8,75.1,0.2C1351,783.6,1356.2,791.9,1355.7,800.1L1355.7,800.1z"/>
		<path class="st29" d="M1355.7,812L1355.7,812c-0.5,7.5-5.6,14.7-15.4,20.3c-20.7,11.8-54.3,11.8-75.1-0.2
			c-9.8-5.6-14.9-12.8-15.7-20.1c-0.1-0.6-0.1-1-0.1-1.6v-11.7l0,0c0,1.9,0.4,3.8,1,5.7c0.9,2.6,2.4,5.2,4.5,7.6
			c2.5,2.9,6,5.7,10.3,8.2c20.8,11.9,54.4,12,75.1,0.2c4.4-2.5,7.8-5.3,10.3-8.3c1.9-2.3,3.3-4.7,4.1-7.1c0.5-1.6,0.9-3.2,1-4.8v9.7
			C1355.8,810.5,1355.8,811.3,1355.7,812z"/>
	</g>
</g>
<path d="M1423.1,589.1c-0.6-13.5-9.9-27-27.9-37.4c-37-21.3-96.8-21.4-133.6-0.3c-19.2,11-28.3,25.7-27.3,40.1v14.1
	c-1,14.6,8.3,29.4,27.8,40.6c37,21.3,96.8,21.4,133.6,0.3c18.4-10.6,27.6-24.6,27.4-38.6h0.1L1423.1,589.1L1423.1,589.1
	L1423.1,589.1z"/>
<g>
	<path class="st34" d="M1415.2,585.5c-0.6-13.5-9.9-27-27.9-37.4c-37-21.3-96.8-21.4-133.6-0.3c-19.2,11-28.3,25.7-27.3,40.1
		c0.2,2.4,0.6,4.7,1.3,7c1,3.2,2.4,6.4,4.3,9.5c4.6,7.3,12,14.2,22.3,20.1c37,21.3,96.8,21.4,133.6,0.3c10.3-6,17.8-13,22.3-20.4
		c1.7-2.9,3-5.7,3.8-8.7C1414.9,592.3,1415.4,588.9,1415.2,585.5z M1390.8,604.4l-124.1,8.2l-0.8-8.2l-1.9-18.9l-1.8-18.7l24.6-0.7
		l1.9,19.4l1.1,11.4l106-7l3,14.1L1390.8,604.4z"/>
	<path class="st35" d="M1398.8,603.9l-8,0.6l-124.1,8.2l-0.8-8.2l-1.9-18.9l-1.8-18.7l24.6-0.7l1.9,19.4l1.1,11.3l106-7
		L1398.8,603.9z"/>
	<path class="st36" d="M1415.3,585.5v18.9h-0.1c0.2,14-9,27.9-27.4,38.6c-36.7,21.1-96.6,21-133.6-0.3
		c-19.5-11.2-28.8-26.1-27.8-40.6V588c0.2,2.4,0.6,4.7,1.3,7c1,3.2,2.4,6.4,4.3,9.5c4.6,7.3,12,14.2,22.3,20.1
		c37,21.3,96.8,21.4,133.6,0.3c10.3-6,17.8-13,22.3-20.4c1.7-2.9,3-5.7,3.8-8.7C1415,592.5,1415.4,589,1415.3,585.5L1415.3,585.5
		L1415.3,585.5z"/>
</g>
</svg>
